<?xml version="1.0" encoding="UTF-8"?>
<svg version="1.1" viewBox="0 0 1200 1030" width="1200" height="1030" xmlns="http://www.w3.org/2000/svg">
<path transform="translate(579,1)" d="m0 0h43l30 3 27 5 24 6 29 10 21 9 16 8 20 11 21 14 16 12 11 9 13 12 11 10 7 8 12 13 13 17 12 17 11 18 13 24 12 28 9 27 7 28 5 30 2 21v48l-3 28-4 23-3 12-1 1-103 3-60 1-20-2-16-5-12-6-10-8-6-5-11-14-7-14-5-17-1-7v-27l4-20 6-15 7-11 9-10 7-7 11-7 16-7 16-3h63l1-78-81 1-20 3-19 5-15 6-19 10-16 12-12 11-8 8-13 17-11 19-5 11-3-4-8-17-10-15-13-15-11-10-13-9-14-8-16-7-16-5-13-3-21-3-26-2-22-1-160-1 8-16 12-19 8-11 13-17 9-10 7-8 23-23 22-18 15-11 19-12 22-12 23-11 24-9 19-6 24-6 23-4z"/>
<path transform="translate(302,277)" d="m0 0h161l22 3 18 6 11 7 9 9 7 11 6 14 3 12 2 17v21l-3 21-6 18-6 10-9 10-8 7-16 8-17 5-22 3h-33v-141h-91v217l103-1 45-2 24-3 18-4 16-5 20-9 14-9 10-8 10-9 10-11 10-15 10-19 3-6 2 2 8 16 10 16 13 15 9 9 14 11 15 10 21 10 19 6 24 4 14 1h50l73-1h28l-2 5-10 18-15 22-13 17-13 15-11 12-9 9-8 7-14 12-12 9-27 18-23 13-26 12-24 9-24 7-22 5-16 3-27 3h-52l-29-3-31-6-28-8-25-9-26-12-17-9-21-13-18-13-16-13-12-11-8-7-9-9-7-8-9-10-13-17-12-17-13-22-11-21-11-26-10-30-7-30-4-25-2-21v-48l3-28 4-23 3-12z" fill="#EA891A"/>
<path transform="translate(404,817)" d="m0 0h2l11 23 17 35 24 50 1 1 25-106 2-3 19 38 11 23 8 18 2-3 13-27 13-28 10-21 2 1 26 108v2h-17l-9-37-4-18-1-8-2 3-8 17-12 22-12 23-3-4-15-29-12-23-4-9v-2h-2v8l-13 57h-36l-7-14-6-14-45-1-1 5-11 24h-19l9-20 23-47 11-23zm0 33-5 13-9 19v2h31l-9-19-6-15z" fill="#030100"/>
<path transform="translate(651,813)" d="m0 0h15l16 4 11 6 12 11 7 11 5 13 1 6v15l-3 13-7 13-10 11-14 9-12 4-6 1h-15l-13-3-14-7-12-11-7-11-4-9-2-10v-15l3-13 7-13 9-10 11-8 12-5zm1 17-10 3-11 7-8 10-4 10-1 4v15l4 12 8 11 10 7 7 3 5 1h13l12-4 8-6 7-7 5-10 2-7v-14l-4-13-6-8-5-5-9-6-10-3z" fill="#020100"/>
<path transform="translate(82,816)" d="m0 0h41l17 2 11 4 11 8 7 9 5 10 3 15v16l-3 15-7 13-7 8-11 7-13 4-10 1h-44zm18 16v80h28l9-2 8-5 5-5 5-8 3-11v-18l-4-13-4-6-5-5-8-5-10-2z" fill="#010000"/>
<path transform="translate(910,816)" d="m0 0h39l10 2 6 3 8 9 3 10v11l-3 8-6 7-4 2 9 5 6 7 3 10v12l-3 10-6 8-7 5-6 2-8 1h-41zm18 15v32h15l9-3 4-5 1-3v-10l-3-6-3-3-8-2zm0 46v36h18l9-3 5-5 2-5v-10l-3-6-5-5-7-2z" fill="#010000"/>
<path transform="translate(827,816)" d="m0 0h62v15h-44v28h44v16h-44v37h44v16h-62z"/>
<path transform="translate(197,816)" d="m0 0h62v15h-44v28h44v16h-44v37h44v16h-62z"/>
<path transform="translate(305,813)" d="m0 0h13l9 2 10 6 6 8-1 4-13 6-4-5-8-4h-9l-6 3-3 3-1 3v7l3 5 7 6 16 8 14 9 6 7 3 9v12l-3 10-6 8-6 5-10 4-5 1h-14l-13-4-8-6-6-10-1-6 14-6 6 9 6 4 4 1h11l6-3 4-5 1-3v-8l-4-6-9-6-19-10-10-8-5-7-2-7v-11l3-9 6-8 10-6z" fill="#030200"/>
<path transform="translate(1043,816)" d="m0 0h74l-6 12-13 22-28 48-8 14h56v16h-85l8-14 13-23 35-60h-46z" fill="#010000"/>
<path transform="translate(720,816)" d="m0 0h20l12 20 12 19 3 6 3-4 12-20 11-17 3-4h18l-8 14-15 23-12 20-2 3-1 52h-18l-1-52-16-26-14-22z" fill="#010000"/>
<path transform="translate(1e3 816)" d="m0 0h18v112h-18z"/>
<path transform="translate(254,990)" d="m0 0h7l3 2v2l7-4h6l5 5-1 16-1 6h-6l1-21-1-1h-5l-3 4-3 18h-6l1-11v-10l-1-1h-5l-3 5-3 17h-6l3-25 1-1h5 3z" fill="#040200"/>
<path transform="translate(1124,990)" d="m0 0h7l6 3v-2h6l-3 27-3 7-6 4h-9l-6-3-2-5 5-1 3 4h8l3-4 1-5-4 2h-8l-6-5-1-3v-8l3-7zm2 4-4 4-1 2v8l4 5h6l4-4 1-3v-7l-4-5z" fill="#0B0601"/>
<path transform="translate(977,990)" d="m0 0h7l6 3v-2h6l-3 27-3 7-6 4h-9l-6-3-2-5 5-1 3 4h8l3-4 1-5-4 2h-8l-6-5-1-3v-8l3-7zm2 4-4 4-1 2v8l4 5h6l4-4 1-3v-7l-4-5z" fill="#0B0601"/>
<path transform="translate(343,990)" d="m0 0h7l6 3v-2h6l-3 27-3 7-6 4h-9l-6-3-2-5 5-1 3 4h8l3-4 1-5-4 2h-8l-6-5-1-3v-8l3-7zm2 4-4 4-1 2v8l4 5h6l4-4 1-3v-7l-4-5z" fill="#0B0601"/>
<path transform="translate(1040,975)" d="m0 0h6l-3 26-2 15-1 1h-5v-2l-4 2h-8l-5-3-2-5v-9l3-6 6-4h7l6 3 1-14zm-13 19-4 4-1 2v8l2 4 7 1 4-3 1-3v-9l-4-4z" fill="#090501"/>
<path transform="translate(798,990)" d="m0 0h7l5 3 2 5v9l-3 6-3 3-3 1h-7l-4-2-1 1-2 13h-6l3-27 2-11h5 2zm-1 4-4 4-1 2v9l4 4 7-1 3-5v-8l-2-4z" fill="#090501"/>
<path transform="translate(542,990)" d="m0 0h7l5 3 2 5v9l-3 6-3 3-3 1h-7l-4-2-1 1-2 13h-6l3-27 2-11h5 2zm-1 4-4 4-1 2v9l4 4 7-1 3-5v-8l-2-4z" fill="#090501"/>
<path transform="translate(882,990)" d="m0 0h7l6 3v-2h6l-3 25-1 1h-5v-2l-4 2h-8l-4-2-3-6v-9l3-6zm2 4-4 4-1 2v8l2 4 7 1 5-5 1-7-2-5-3-2z" fill="#080500"/>
<path transform="translate(761,990)" d="m0 0h7l6 3v-2h6l-3 25-1 1h-5v-2l-4 2h-8l-4-2-3-6v-9l3-6zm2 4-4 4-1 2v8l2 4 7 1 5-5 1-7-2-5-3-2z" fill="#080500"/>
<path transform="translate(93,990)" d="m0 0h7l6 3v-2h6l-3 25-1 1h-5v-2l-4 2h-8l-4-2-3-6v-9l3-6zm2 4-4 4-1 2v8l2 4 7 1 5-5 1-7-2-5-3-2z" fill="#080500"/>
<path transform="translate(1059,990)" d="m0 0h7l5 3 3 5v7h-20l2 7h7l5-3 4 4-7 4h-8l-6-3-3-6v-7l3-6 5-4zm0 4-4 4v3h13l-1-5-2-2z" fill="#080500"/>
<path transform="translate(509,990)" d="m0 0h7l5 3 3 5v7h-20l2 7h7l5-3 4 4-7 4h-8l-6-3-3-6v-7l3-6 5-4zm0 4-4 4v3h13l-1-5-2-2z" fill="#080500"/>
<path transform="translate(689,990)" d="m0 0h8l5 3 3 3 1 3v7l-3 6-5 4-3 1h-8l-7-4-2-5v-7l3-6 5-4zm1 4-5 4-1 3v7l4 5h6l5-4 1-3v-7l-4-5z" fill="#090501"/>
<path transform="translate(419,990)" d="m0 0h8l5 3 3 3 1 3v7l-3 6-5 4-3 1h-8l-7-4-2-5v-7l3-6 5-4zm1 4-5 4-1 3v7l4 5h6l5-4 1-3v-7l-4-5z" fill="#090501"/>
<path transform="translate(199,990)" d="m0 0h8l5 3 3 3 1 3v7l-3 6-5 4-3 1h-8l-7-4-2-5v-7l3-6 5-4zm1 4-5 4-1 3v7l4 5h6l5-4 1-3v-7l-4-5z" fill="#090501"/>
<path transform="translate(1162,990)" d="m0 0h7l5 5-1 16-1 6h-6l1-20-1-2h-6l-3 3-2 6-2 13h-6l3-26h6 3z" fill="#070400"/>
<path transform="translate(951,990)" d="m0 0h7l5 5-1 16-1 6h-6l1-20-1-2h-6l-3 3-2 6-2 13h-6l3-26h6 3z" fill="#070400"/>
<path transform="translate(645,990)" d="m0 0h7l5 5-1 16-1 6h-6l1-20-1-2h-6l-3 3-2 6-2 13h-6l3-26h6 3z" fill="#070400"/>
<path transform="translate(455,990)" d="m0 0h7l5 5-1 16-1 6h-6l1-20-1-2h-6l-3 3-2 6-2 13h-6l3-26h6 3z" fill="#070400"/>
<path transform="translate(316,990)" d="m0 0h7l5 5-1 16-1 6h-6l1-20-1-2h-6l-3 3-2 6-2 13h-6l3-26h6 3z" fill="#070400"/>
<path transform="translate(131,990)" d="m0 0h7l5 5-1 16-1 6h-6l1-20-1-2h-6l-3 3-2 6-2 13h-6l3-26h6 3z" fill="#070400"/>
<path transform="translate(182,974)" d="m0 0h7l1 4-2 1-4-1-2 13h5l-1 4h-5l-2 18-1 4h-6l2-19 1-3h-5l1-4h5v-7l2-7z" fill="#060300"/>
<path transform="translate(1187,990)" d="m0 0h7l5 3-4 4-2-2h-5v5l5 2 4 4v6l-4 4-2 1h-8l-6-4 4-4 4 3h5l-1-5-7-5-1-7 4-4z" fill="#0E0801"/>
<path transform="translate(1086,990)" d="m0 0h7l5 3-4 4-2-2h-5v5l5 2 4 4v6l-4 4-2 1h-8l-6-4 4-4 4 3h5l-1-5-7-5-1-7 4-4z" fill="#0E0801"/>
<path transform="translate(584,990)" d="m0 0h7l5 3-4 4-2-2h-5v5l5 2 4 4v6l-4 4-2 1h-8l-6-4 4-4 4 3h5l-1-5-7-5-1-7 4-4z" fill="#0E0801"/>
<path transform="translate(156,990)" d="m0 0h7l5 3-4 4-2-2h-5v5l5 2 4 4v6l-4 4-2 1h-8l-6-4 4-4 4 3h5l-1-5-7-5-1-7 4-4z" fill="#0E0801"/>
<path transform="translate(737,990)" d="m0 0h9l4 2-1 5-5-2h-6l-4 3-1 3v7l3 4 11-1-1 5-3 1h-8l-7-4-2-4v-8l3-6 5-4z" fill="#0B0701"/>
<path transform="translate(483,990)" d="m0 0h9l4 2-1 5-5-2h-6l-4 3-1 3v7l3 4 11-1-1 5-3 1h-8l-7-4-2-4v-8l3-6 5-4z" fill="#0B0701"/>
<path transform="translate(393,990)" d="m0 0h9l4 2-1 5-5-2h-6l-4 3-1 3v7l3 4 11-1-1 5-3 1h-8l-7-4-2-4v-8l3-6 5-4z" fill="#0B0701"/>
<path transform="translate(911,981)" d="m0 0h5v8l-1 2h5l-1 4h-5l-1 16-1 6h-6l2-19 1-3h-5l1-4h5v-8z" fill="#020100"/>
<path transform="translate(822,981)" d="m0 0h5v8l-1 2h5l-1 4h-5l-1 16-1 6h-6l2-19 1-3h-5l1-4h5v-8z" fill="#020100"/>
<path transform="translate(668,981)" d="m0 0h5v8l-1 2h5l-1 4h-5l-1 16-1 6h-6l2-19 1-3h-5l1-4h5v-8z" fill="#020100"/>
<path transform="translate(566,981)" d="m0 0h5v8l-1 2h5l-1 4h-5l-1 16-1 6h-6l2-19 1-3h-5l1-4h5v-8z" fill="#020100"/>
<path transform="translate(53,981)" d="m0 0h5v8l-1 2h5l-1 4h-5l-1 16-1 6h-6l2-19 1-3h-5l1-4h5v-8z" fill="#020100"/>
<path transform="translate(846,991)" d="m0 0h6l5 15 9-15h7l-7 11-9 14h-2l-9-24z" fill="#0D0801"/>
<path transform="translate(233,990)" d="m0 0h6l1 2-3 3-6 1-3 9-2 12h-6l3-26h6 2z" fill="#080400"/>
<path transform="translate(77,990)" d="m0 0h6l1 2-3 3-6 1-3 9-2 12h-6l3-26h6 2z" fill="#080400"/>
<path transform="translate(1106,991)" d="m0 0h5l-3 26h-6l3-25z" fill="#060300"/>
<path transform="translate(926,991)" d="m0 0h5l-3 26h-6l3-25z" fill="#060300"/>
<path transform="translate(838,991)" d="m0 0h5l-3 26h-6l3-25z" fill="#060300"/>
<path transform="translate(620,991)" d="m0 0h5l-3 26h-6l3-25z" fill="#060300"/>
<path transform="translate(292,991)" d="m0 0h5l-3 26h-6l3-25z" fill="#060300"/>
<path transform="translate(35,1010)" d="m0 0 4 1 1 4-2 2-4-1-1-4z"/>
<path transform="translate(18,1010)" d="m0 0 4 1 1 4-2 2-4-1-1-4z"/>
<path transform="translate(2,1010)" d="m0 0 4 1 1 4-2 2-4-1-1-4z"/>
<path transform="translate(1108,978)" d="m0 0 4 1 1 4-2 2-4-1-1-4z"/>
<path transform="translate(928,978)" d="m0 0 4 1 1 4-2 2-4-1-1-4z"/>
<path transform="translate(840,978)" d="m0 0 4 1 1 4-2 2-4-1-1-4z"/>
<path transform="translate(622,978)" d="m0 0 4 1 1 4-2 2-4-1-1-4z"/>
<path transform="translate(294,978)" d="m0 0 4 1 1 4-2 2-4-1-1-4z"/>
</svg>
